<svg width="18" height="18" viewBox="0 0 18 18" fill="none" xmlns="http://www.w3.org/2000/svg">
<g clip-path="url(#clip0_47_288)">
<path fill-rule="evenodd" clip-rule="evenodd" d="M9 16.875C11.0886 16.875 13.0916 16.0453 14.5685 14.5685C16.0453 13.0916 16.875 11.0886 16.875 9C16.875 6.91142 16.0453 4.90838 14.5685 3.43153C13.0916 1.95468 11.0886 1.125 9 1.125C6.91142 1.125 4.90838 1.95468 3.43153 3.43153C1.95468 4.90838 1.125 6.91142 1.125 9C1.125 11.0886 1.95468 13.0916 3.43153 14.5685C4.90838 16.0453 6.91142 16.875 9 16.875ZM9 18C11.3869 18 13.6761 17.0518 15.364 15.364C17.0518 13.6761 18 11.3869 18 9C18 6.61305 17.0518 4.32387 15.364 2.63604C13.6761 0.948212 11.3869 0 9 0C6.61305 0 4.32387 0.948212 2.63604 2.63604C0.948212 4.32387 0 6.61305 0 9C0 11.3869 0.948212 13.6761 2.63604 15.364C4.32387 17.0518 6.61305 18 9 18Z" fill="#FDB022"/>
<path fill-rule="evenodd" clip-rule="evenodd" d="M4.82078 10.7629C4.94998 10.6883 5.10351 10.6681 5.24761 10.7067C5.39171 10.7453 5.51457 10.8396 5.58916 10.9688C5.93466 11.5677 6.43184 12.065 7.03065 12.4106C7.62947 12.7562 8.30877 12.938 9.00016 12.9376C9.69156 12.938 10.3709 12.7562 10.9697 12.4106C11.5685 12.065 12.0657 11.5677 12.4112 10.9688C12.4478 10.9043 12.4969 10.8477 12.5555 10.8023C12.6141 10.7568 12.6812 10.7234 12.7528 10.704C12.8244 10.6845 12.8991 10.6795 12.9727 10.689C13.0462 10.6986 13.1172 10.7226 13.1814 10.7597C13.2457 10.7968 13.3019 10.8462 13.347 10.9051C13.392 10.9641 13.425 11.0313 13.444 11.103C13.4629 11.1748 13.4675 11.2495 13.4575 11.323C13.4474 11.3965 13.4229 11.4673 13.3854 11.5313C12.9412 12.3012 12.302 12.9405 11.5321 13.3849C10.7623 13.8292 9.88903 14.063 9.00016 14.0626C8.11129 14.063 7.238 13.8292 6.46817 13.3849C5.69834 12.9405 5.05915 12.3012 4.61491 11.5313C4.54032 11.4021 4.52011 11.2486 4.55872 11.1045C4.59733 10.9604 4.69159 10.8375 4.82078 10.7629Z" fill="#FDB022"/>
<path d="M7.875 7.3125C7.875 8.244 7.371 9 6.75 9C6.129 9 5.625 8.244 5.625 7.3125C5.625 6.381 6.129 5.625 6.75 5.625C7.371 5.625 7.875 6.381 7.875 7.3125ZM12.375 7.3125C12.375 8.244 11.871 9 11.25 9C10.629 9 10.125 8.244 10.125 7.3125C10.125 6.381 10.629 5.625 11.25 5.625C11.871 5.625 12.375 6.381 12.375 7.3125Z" fill="#FDB022"/>
</g>
<defs>
<clipPath id="clip0_47_288">
<rect width="18" height="18" fill="white"/>
</clipPath>
</defs>
</svg>
