<svg width="18" height="18" viewBox="0 0 18 18" fill="none" xmlns="http://www.w3.org/2000/svg">
<path fill-rule="evenodd" clip-rule="evenodd" d="M13.5 2.90918C13.2769 2.90918 13.063 2.99778 12.9053 3.1555L3.67721 12.3836L3.28076 13.9694L4.86655 13.5729L14.0947 4.34484C14.1727 4.26675 14.2347 4.17404 14.277 4.072C14.3192 3.96997 14.341 3.86061 14.341 3.75017C14.341 3.63973 14.3192 3.53037 14.277 3.42834C14.2347 3.3263 14.1727 3.23359 14.0947 3.1555C14.0166 3.07741 13.9239 3.01546 13.8218 2.9732C13.7198 2.93093 13.6104 2.90918 13.5 2.90918ZM11.8447 2.09484C12.2837 1.65582 12.8791 1.40918 13.5 1.40918C13.8074 1.40918 14.1118 1.46973 14.3958 1.58738C14.6799 1.70502 14.9379 1.87746 15.1553 2.09484C15.3727 2.31222 15.5451 2.57029 15.6628 2.85431C15.7804 3.13833 15.841 3.44275 15.841 3.75017C15.841 4.05759 15.7804 4.36201 15.6628 4.64603C15.5451 4.93005 15.3727 5.18812 15.1553 5.4055L5.78032 14.7805C5.6842 14.8766 5.56376 14.9448 5.43189 14.9778L2.43189 15.7278C2.17631 15.7917 1.90594 15.7168 1.71966 15.5305C1.53337 15.3442 1.45848 15.0739 1.52238 14.8183L2.27238 11.8183C2.30535 11.6864 2.37354 11.566 2.46966 11.4698L11.8447 2.09484ZM8.24999 15.0002C8.24999 14.586 8.58577 14.2502 8.99999 14.2502H15.75C16.1642 14.2502 16.5 14.586 16.5 15.0002C16.5 15.4144 16.1642 15.7502 15.75 15.7502H8.99999C8.58577 15.7502 8.24999 15.4144 8.24999 15.0002Z" fill="#FDB022"/>
</svg>
