<svg width="18" height="18" viewBox="0 0 18 18" fill="none" xmlns="http://www.w3.org/2000/svg">
<path fill-rule="evenodd" clip-rule="evenodd" d="M2.43748 9C2.43748 8.27513 3.02511 7.6875 3.74998 7.6875C4.47486 7.6875 5.06248 8.27513 5.06248 9C5.06248 9.72487 4.47486 10.3125 3.74998 10.3125C3.02511 10.3125 2.43748 9.72487 2.43748 9ZM7.68751 9C7.68751 8.27513 8.27514 7.6875 9.00001 7.6875C9.72488 7.6875 10.3125 8.27513 10.3125 9C10.3125 9.72487 9.72488 10.3125 9.00001 10.3125C8.27514 10.3125 7.68751 9.72487 7.68751 9ZM12.9375 9C12.9375 8.27513 13.5251 7.6875 14.25 7.6875C14.9749 7.6875 15.5625 8.27513 15.5625 9C15.5625 9.72487 14.9749 10.3125 14.25 10.3125C13.5251 10.3125 12.9375 9.72487 12.9375 9Z" fill="#FDB022"/>
</svg>
