<svg width="18" height="18" viewBox="0 0 18 18" fill="none" xmlns="http://www.w3.org/2000/svg">
<path d="M16.2825 6.9675L13.2825 3.9675C13.2126 3.89757 13.1296 3.8421 13.0382 3.80426C12.9468 3.76641 12.8489 3.74693 12.75 3.74693C12.5503 3.74693 12.3587 3.82627 12.2175 3.9675C12.0763 4.10873 11.9969 4.30028 11.9969 4.5C11.9969 4.69973 12.0763 4.89127 12.2175 5.0325L13.9425 6.75H5.25001C5.0511 6.75 4.86034 6.82902 4.71968 6.96967C4.57903 7.11032 4.50001 7.30109 4.50001 7.5C4.50001 7.69891 4.57903 7.88968 4.71968 8.03033C4.86034 8.17098 5.0511 8.25 5.25001 8.25H15.75C15.8981 8.24926 16.0426 8.20471 16.1654 8.12196C16.2882 8.03921 16.3837 7.92197 16.44 7.785C16.4974 7.64842 16.5131 7.49788 16.4851 7.35239C16.4571 7.2069 16.3866 7.07297 16.2825 6.9675ZM12.75 9.75H2.25001C2.10194 9.75074 1.95741 9.79529 1.83462 9.87804C1.71183 9.96079 1.61628 10.078 1.56001 10.215C1.50258 10.3516 1.48689 10.5021 1.51492 10.6476C1.54295 10.7931 1.61344 10.927 1.71751 11.0325L4.71751 14.0325C4.78724 14.1028 4.87019 14.1586 4.96158 14.1967C5.05298 14.2347 5.151 14.2544 5.25001 14.2544C5.34902 14.2544 5.44705 14.2347 5.53845 14.1967C5.62984 14.1586 5.71279 14.1028 5.78251 14.0325C5.85281 13.9628 5.90861 13.8798 5.94668 13.7884C5.98476 13.697 6.00436 13.599 6.00436 13.5C6.00436 13.401 5.98476 13.303 5.94668 13.2116C5.90861 13.1202 5.85281 13.0372 5.78251 12.9675L4.05751 11.25H12.75C12.9489 11.25 13.1397 11.171 13.2803 11.0303C13.421 10.8897 13.5 10.6989 13.5 10.5C13.5 10.3011 13.421 10.1103 13.2803 9.96967C13.1397 9.82902 12.9489 9.75 12.75 9.75Z" fill="#FDB022"/>
</svg>
